#!OML:ASF E:/inclinewalkrobotboard/Project1/Captureday1/Session1/subject1.ASF
:FULLY-SPECIFIED
:DEGREES
13
root 0 0 0 34.03664366377191 -34.76710051721528 -9.326272697094254
lowerback -18.789812714251877 4.271250070927044 -3.3221641791236998
upperback -10.931956032179071 6.060656064150709 0.7759542441646932
thorax -1.6228886523401833 3.132530871633122 3.330823790242844
lowerneck -12.166798808727979 1.8966822614517778 3.0580643024526757
upperneck 36.23995286533484 0.4050928491923817 3.0856026512147006
head 14.443809178313582 0.9587001582564083 0.8297411386020382
rclavicle 1.8062758749907338E-14 3.5527085093654336E-15
rhumerus -75.51027698532687 -32.673862576971814 -7.321034805833108
rradius 13.531409113718224
rwrist 49.39166645932213
rhand 12.448583067098706 6.976127963496049
rfingers 7.12502000000008
rthumb 37.356450101562956 -18.057803902815216
lclavicle 9.789235177219673E-15 -2.1176157430676137E-15
lhumerus -38.71297090935819 16.456521938422394 63.39331559910606
lradius 39.29262368125049
lwrist -3.4967024420676456
lhand 0.6663582146073119 21.723150606890563
lfingers 7.125020000000076
lthumb 26.22168908072981 49.93334485500804
rfemur -42.4069926590921 7.128621650729855 32.617445691166566
rtibia 42.59606068398883
rfoot -14.275821121681144 -30.68881560249475
rtoes 40.44993722732194
lfemur -42.753017622736344 0.21518930235373013 -29.277344483009514
ltibia 33.73175292472002
lfoot -53.30077438220205 27.927019640360733
ltoes 28.925066724646285
14
root 0 0 0 33.83702361839176 -35.20099309093165 -9.649551917864637
lowerback -18.633167947812222 4.278366742841399 -2.9079706025737853
upperback -10.924830244521731 6.0532671737851205 0.9912981730226249
thorax -1.7037293671640787 3.130781642481656 3.327932316809668
lowerneck -12.089669904444127 1.5217555478330707 2.8273637954051045
upperneck 36.23749078395879 -0.10171685981439788 3.1961833488134763
head 14.434782776134755 0.7125982639941342 0.8236622235024218
rclavicle 2.0754133674308126E-14 1.1522632154353896E-15
rhumerus -80.2987077893459 -40.47999055963838 36.36266665420019
rradius 9.82657587692114
rwrist 88.36731704101159
rhand 14.572968333055012 3.71928309526455
rfingers 7.125020000000047
rthumb 39.416594503414096 -21.376276624603104
lclavicle 1.1860490450672499E-14 -1.4775062736594138E-15
lhumerus -35.869111988451266 20.19436290193231 47.135620430186336
lradius 32.42952092821827
lwrist -20.20246334628184
lhand -1.700545299584412 23.51120017608108
lfingers 7.125020000000063
lthumb 23.961376313569808 52.05880792442153
rfemur -44.28490504458064 7.65924283323487 33.68016216311372
rtibia 42.92043361759925
rfoot -15.96867367759766 -30.97820711749757
rtoes 41.397806651836696
lfemur -42.24528227457577 0.17005949528327413 -28.828212472721596
ltibia 33.688199342984376
lfoot -54.20012338730337 27.874943979464955
ltoes 29.798141796050786
15
root 0 0 0 33.807665830844115 -33.670295312715645 -9.666630666442494
lowerback -18.725152369575138 4.343305521011037 -2.6603997640771597
upperback -11.020948202068904 6.127037850636139 1.2156251122989776
thorax -1.7593316686398515 3.181242846856253 3.4348376017306252
lowerneck -11.70079547374273 1.1752365686975734 2.7014383701109175
upperneck 36.53870365914249 -0.5269436232651619 3.0537149332680467
head 14.471299995661646 0.4913335711937505 0.7311696757740083
rclavicle 2.2020778463248752E-14 2.3885882540953015E-16
rhumerus -97.92551715526265 -42.728711263131586 62.950424146456946
rradius 8.179082581929983
rwrist 109.48006020826709
rhand 15.404235887569453 2.7160571266829674
rfingers 7.125020000000007
rthumb 40.24978998054555 -22.588836822718402
lclavicle 1.2463374181602665E-14 2.527910678611636E-15
lhumerus -48.04508306510032 21.970656570917974 23.371177696463114
lradius 19.78362298229884
lwrist -43.94924150502732
lhand -2.9420392605683254 27.969790906855316
lfingers 7.125020000000038
lthumb 22.77619879431459 56.60988587261253
rfemur -48.637711751569526 10.593350451344094 34.750340465784205
rtibia 43.62952687826689
rfoot -20.618513365392747 -29.590483199597696
rtoes 43.35074729478927
lfemur -42.095643230722594 -0.010244404600955548 -29.191504557984334
ltibia 33.6316419208599
lfoot -52.85723619681268 27.566033767379455
ltoes 29.00846225178092
16
root 0 0 0 34.224558529207556 -29.80587163357548 -9.3941468975069
lowerback -19.235688256969986 4.4583987318528155 -2.5307213383996077
upperback -11.329094036510625 6.269923085121215 1.5342045045993817
thorax -1.8193894565417557 3.2783727464267045 3.713181613385654
lowerneck -10.900418196856283 0.7419027611589215 2.5904932880204723
upperneck 37.08849713827058 -0.9940134566403391 2.592558722501728
head 14.50620220223361 0.2230199575301406 0.5298234689103614
rclavicle 2.2847965934965615E-14 8.336435899638029E-16
rhumerus -103.55992440319761 -43.34557644167411 71.57651431586143
rradius 7.586316602752639
rwrist 113.95316532389583
rhand 15.733678616321619 2.08002471218399
rfingers 7.12501999999999
rthumb 40.58071027019881 -23.28675490316464
lclavicle 1.4403791522411932E-14 6.862407494012915E-15
lhumerus -55.260951989979006 23.10231077642218 16.12328647359757
lradius 15.513222542771274
lwrist -51.18114894866765
lhand -2.35829830835973 29.061015187281846
lfingers 7.125020000000026
lthumb 23.329875980122445 57.54043006665646
rfemur -54.526146362717185 16.228377669425825 33.415964987161615
rtibia 44.319555255849366
rfoot -28.625208806346155 -25.687590071627262
rtoes 47.365936803846125
lfemur -41.93681435959556 -0.2463841838733103 -30.277757577866065
ltibia 33.53818018341008
lfoot -49.67828614079464 27.017076410283487
ltoes 26.57747066023608
17
root 0 0 0 34.55268776188091 -20.52777042884988 -8.254920114644465
lowerback -20.598545387193436 4.58243145787903 -2.2145264734138554
upperback -12.038457104626252 6.409627078118564 2.4921057180837396
thorax -1.8653383092727651 3.416910743840954 4.5735495410170754
lowerneck -8.93298444101162 -0.4857050299962097 1.9860849391658622
upperneck 37.86087688038052 -2.275011621023727 1.5409335596491545
head 14.353148883131944 -0.5294180770883696 0.1006459497835116
rclavicle 2.4547297757919958E-14 1.7033480561453729E-15
rhumerus -104.01700426116447 -43.21404324281058 74.41310718182709
rradius 7.653379405014391
rwrist 114.19773443501872
rhand 16.02876219277244 1.5524189012725715
rfingers 7.125019999999983
rthumb 40.86729249306885 -23.789218591426017
lclavicle 1.6799631837234318E-14 8.42076465238072E-15
lhumerus -55.529376297907305 22.91498589077036 13.08798888025629
lradius 14.693747876244263
lwrist -51.56732377088211
lhand -1.2120520146911105 29.704148120836322
lfingers 7.1250200000000214
lthumb 24.41849638969146 57.9573419529926
rfemur -64.90338939381655 29.382444981012554 23.69091791499335
rtibia 44.91102424594745
rfoot -48.724882097610745 -12.940232125503746
rtoes 59.32320562816052
lfemur -41.49801297110909 -0.6348604643087743 -31.510142812515394
ltibia 33.239152857224525
lfoot -46.24592569125515 26.302381626212203
ltoes 23.525682705147062
